<svg xmlns="http://www.w3.org/2000/svg" viewBox="0 0 1600 1000" role="img" aria-label="Freelancer agency demo cover">
  <defs><linearGradient id="g" x1="0" y1="0" x2="1" y2="1"><stop stop-color="#040812"/><stop offset=".5" stop-color="#071528"/><stop offset="1" stop-color="#7d7cff"/></linearGradient><filter id="glow"><feGaussianBlur stdDeviation="10" result="b"/><feMerge><feMergeNode in="b"/><feMergeNode in="SourceGraphic"/></feMerge></filter></defs>
  <rect width="1600" height="1000" fill="url(#g)"/>
  <g opacity=".16" stroke="#fff"><path d="M100 180H1500M100 380H1500M100 580H1500M100 780H1500"/><path d="M220 100V900M460 100V900M700 100V900M940 100V900M1180 100V900M1420 100V900"/></g>
  <g filter="url(#glow)"><rect x="790" y="250" width="560" height="390" rx="36" fill="#08101f" stroke="#61d9ff" stroke-width="7"/><path d="M865 340h260M865 420h390M865 500h220" stroke="#fff" stroke-width="20" stroke-linecap="round" opacity=".82"/><path d="M980 685l-70 80h360" stroke="#ff7b2f" stroke-width="16" stroke-linecap="round"/></g>
  <text x="92" y="150" fill="#8be7ff" font-family="Arial, sans-serif" font-weight="800" font-size="44">SHADOW RISER DEMO</text>
  <text x="92" y="250" fill="#fff" font-family="Arial, sans-serif" font-weight="900" font-size="108">Project Intake Studio</text>
  <text x="96" y="326" fill="#d5ddff" font-family="Arial, sans-serif" font-size="42">Services, scope form, proposal handoff</text>
</svg>
