<svg xmlns="http://www.w3.org/2000/svg" viewBox="0 0 1600 1000" role="img" aria-label="Car retail parts demo cover">
  <defs><linearGradient id="g" x1="0" y1="0" x2="1" y2="1"><stop stop-color="#05070c"/><stop offset=".55" stop-color="#101923"/><stop offset="1" stop-color="#4fd8ff"/></linearGradient><filter id="glow"><feGaussianBlur stdDeviation="10" result="b"/><feMerge><feMergeNode in="b"/><feMergeNode in="SourceGraphic"/></feMerge></filter></defs>
  <rect width="1600" height="1000" fill="url(#g)"/>
  <g opacity=".2" stroke="#fff"><path d="M180 170H1440M180 350H1440M180 530H1440M180 710H1440"/><path d="M320 100V880M600 100V880M880 100V880M1160 100V880"/></g>
  <g filter="url(#glow)"><rect x="850" y="240" width="190" height="190" rx="28" fill="#0b1322" stroke="#4fd8ff" stroke-width="8"/><rect x="1100" y="240" width="190" height="190" rx="28" fill="#0b1322" stroke="#ff7b2f" stroke-width="8"/><rect x="850" y="500" width="440" height="160" rx="28" fill="#0b1322" stroke="#72ffc7" stroke-width="8"/><path d="M890 335h110M1142 335h106M918 580h304" stroke="#fff" stroke-width="18" stroke-linecap="round" opacity=".8"/></g>
  <text x="92" y="150" fill="#7fdfff" font-family="Arial, sans-serif" font-weight="800" font-size="44">SHADOW RISER DEMO</text>
  <text x="92" y="250" fill="#fff" font-family="Arial, sans-serif" font-weight="900" font-size="108">Parts Quote System</text>
  <text x="96" y="326" fill="#c7d8e8" font-family="Arial, sans-serif" font-size="42">Fitment, stock check, WhatsApp quote handoff</text>
</svg>
