<svg xmlns="http://www.w3.org/2000/svg" viewBox="0 0 96 96" role="img" aria-label="Shadow Riser SR">
  <defs>
    <linearGradient id="sr-fire-ice" x1="12" y1="18" x2="84" y2="80" gradientUnits="userSpaceOnUse">
      <stop offset="0" stop-color="#4fd8ff"/>
      <stop offset="0.48" stop-color="#101827"/>
      <stop offset="1" stop-color="#ff7b2f"/>
    </linearGradient>
    <linearGradient id="sr-glint" x1="18" y1="20" x2="78" y2="76" gradientUnits="userSpaceOnUse">
      <stop offset="0" stop-color="#ffffff"/>
      <stop offset="0.5" stop-color="#baf3ff"/>
      <stop offset="1" stop-color="#ffd1a8"/>
    </linearGradient>
  </defs>
  <rect width="96" height="96" rx="22" fill="#05070c"/>
  <rect x="7" y="7" width="82" height="82" rx="18" fill="url(#sr-fire-ice)" opacity="0.9"/>
  <rect x="11" y="11" width="74" height="74" rx="15" fill="#070b13" opacity="0.88"/>
  <path d="M22 31c5-8 20-9 28-3l-6 10c-5-4-13-4-16 0-2 3 1 5 8 7 12 4 18 9 14 20-5 12-26 13-36 3l7-10c6 6 18 7 21 1 2-4-2-6-10-9-11-3-16-9-10-19Z" fill="url(#sr-glint)"/>
  <path d="M53 26h16c12 0 19 6 17 17-1 8-6 13-13 15l12 15H71L61 60h-2v13H47l6-47Zm8 11-2 13h5c5 0 9-2 10-7 1-4-2-6-7-6h-6Z" fill="url(#sr-glint)"/>
</svg>
